<svg xmlns="http://www.w3.org/2000/svg">
  <!-- <path fill="#807d7a" d="M0,112L48,121.3C96,131,192,149,288,144.7C384,140,480,112,576,84C672,56,768,28,864,23.3C960,19,1056,37,1152,74.7C1248,112,1344,168,1440,158.7C1536,149,1632,75,1728,42C1824,9,1920,19,2016,56C2112,93,2208,159,2304,158.7C2400,159,2496,93,2592,65.3C2688,37,2784,47,2880,70C2976,93,3072,131,3168,130.7C3264,131,3360,93,3456,102.7C3552,112,3648,168,3744,177.3C3840,187,3936,149,4032,126C4128,103,4224,93,4320,112C4416,131,4512,177,4608,200.7C4704,224,4800,224,4896,219.3C4992,215,5088,205,5184,210C5280,215,5376,233,5472,219.3C5568,205,5664,159,5760,144.7C5856,131,5952,149,6048,149.3C6144,149,6240,131,6336,144.7C6432,159,6528,205,6624,191.3C6720,177,6816,103,6864,65.3L6912,28L6912,280L6864,280C6816,280,6720,280,6624,280C6528,280,6432,280,6336,280C6240,280,6144,280,6048,280C5952,280,5856,280,5760,280C5664,280,5568,280,5472,280C5376,280,5280,280,5184,280C5088,280,4992,280,4896,280C4800,280,4704,280,4608,280C4512,280,4416,280,4320,280C4224,280,4128,280,4032,280C3936,280,3840,280,3744,280C3648,280,3552,280,3456,280C3360,280,3264,280,3168,280C3072,280,2976,280,2880,280C2784,280,2688,280,2592,280C2496,280,2400,280,2304,280C2208,280,2112,280,2016,280C1920,280,1824,280,1728,280C1632,280,1536,280,1440,280C1344,280,1248,280,1152,280C1056,280,960,280,864,280C768,280,672,280,576,280C480,280,384,280,288,280C192,280,96,280,48,280L0,280Z"></path>
  <path fill="#807d7a" d="M0,170L80,192.7C160,215,320,261,480,232.3C640,204,800,102,960,68C1120,34,1280,68,1440,85C1600,102,1760,102,1920,85C2080,68,2240,34,2400,51C2560,68,2720,136,2880,170C3040,204,3200,204,3360,187C3520,170,3680,136,3840,107.7C4000,79,4160,57,4320,68C4480,79,4640,125,4800,124.7C4960,125,5120,79,5280,90.7C5440,102,5600,170,5760,209.7C5920,249,6080,261,6240,255C6400,249,6560,227,6720,198.3C6880,170,7040,136,7200,107.7C7360,79,7520,57,7680,45.3C7840,34,8000,34,8160,28.3C8320,23,8480,11,8640,56.7C8800,102,8960,204,9120,226.7C9280,249,9440,193,9600,158.7C9760,125,9920,113,10080,130.3C10240,147,10400,193,10560,215.3C10720,238,10880,238,11040,232.3C11200,227,11360,215,11440,209.7L11520,204L11520,340L11440,340C11360,340,11200,340,11040,340C10880,340,10720,340,10560,340C10400,340,10240,340,10080,340C9920,340,9760,340,9600,340C9440,340,9280,340,9120,340C8960,340,8800,340,8640,340C8480,340,8320,340,8160,340C8000,340,7840,340,7680,340C7520,340,7360,340,7200,340C7040,340,6880,340,6720,340C6560,340,6400,340,6240,340C6080,340,5920,340,5760,340C5600,340,5440,340,5280,340C5120,340,4960,340,4800,340C4640,340,4480,340,4320,340C4160,340,4000,340,3840,340C3680,340,3520,340,3360,340C3200,340,3040,340,2880,340C2720,340,2560,340,2400,340C2240,340,2080,340,1920,340C1760,340,1600,340,1440,340C1280,340,1120,340,960,340C800,340,640,340,480,340C320,340,160,340,80,340L0,340Z"></path>
  -->
  <path fill="#23272e" d="M0,23L40,30.7C80,38,160,54,240,72.8C320,92,400,115,480,103.5C560,92,640,46,720,38.3C800,31,880,61,960,88.2C1040,115,1120,138,1200,149.5C1280,161,1360,161,1440,141.8C1520,123,1600,84,1680,57.5C1760,31,1840,15,1920,19.2C2000,23,2080,46,2160,57.5C2240,69,2320,69,2400,69C2480,69,2560,69,2640,57.5C2720,46,2800,23,2880,11.5C2960,0,3040,0,3120,3.8C3200,8,3280,15,3360,38.3C3440,61,3520,100,3600,122.7C3680,146,3760,153,3840,164.8C3920,176,4000,192,4080,184C4160,176,4240,146,4320,126.5C4400,107,4480,100,4560,95.8C4640,92,4720,92,4800,107.3C4880,123,4960,153,5040,161C5120,169,5200,153,5280,157.2C5360,161,5440,184,5520,168.7C5600,153,5680,100,5720,72.8L5760,46L5760,230L5720,230C5680,230,5600,230,5520,230C5440,230,5360,230,5280,230C5200,230,5120,230,5040,230C4960,230,4880,230,4800,230C4720,230,4640,230,4560,230C4480,230,4400,230,4320,230C4240,230,4160,230,4080,230C4000,230,3920,230,3840,230C3760,230,3680,230,3600,230C3520,230,3440,230,3360,230C3280,230,3200,230,3120,230C3040,230,2960,230,2880,230C2800,230,2720,230,2640,230C2560,230,2480,230,2400,230C2320,230,2240,230,2160,230C2080,230,2000,230,1920,230C1840,230,1760,230,1680,230C1600,230,1520,230,1440,230C1360,230,1280,230,1200,230C1120,230,1040,230,960,230C880,230,800,230,720,230C640,230,560,230,480,230C400,230,320,230,240,230C160,230,80,230,40,230L0,230Z"></path>
</svg>